<?xml version="1.0" encoding="UTF-8"?>
<!DOCTYPE svg PUBLIC "-//W3C//DTD SVG 1.1//EN" "http://www.w3.org/Graphics/SVG/1.1/DTD/svg11.dtd">
<svg xmlns="http://www.w3.org/2000/svg" version="1.1" width="210px" height="630px" style="shape-rendering:geometricPrecision; text-rendering:geometricPrecision; image-rendering:optimizeQuality; fill-rule:evenodd; clip-rule:evenodd" xmlns:xlink="http://www.w3.org/1999/xlink">
<g><path style="opacity:0.886" fill="#fefffe" d="M 31.5,13.5 C 41.2081,13.8732 45.5414,18.8732 44.5,28.5C 46.1439,28.2865 47.6439,28.6198 49,29.5C 49.8311,36.5237 49.6644,43.5237 48.5,50.5C 38.9701,51.8232 29.4701,51.8232 20,50.5C 19.3333,43.5 19.3333,36.5 20,29.5C 21.3561,28.6198 22.8561,28.2865 24.5,28.5C 23.4036,21.7001 25.7369,16.7001 31.5,13.5 Z M 32.5,18.5 C 38.6767,19.024 41.0101,22.3573 39.5,28.5C 35.8333,28.5 32.1667,28.5 28.5,28.5C 27.7494,24.1804 29.0827,20.8471 32.5,18.5 Z"/></g>
<g><path style="opacity:0.889" fill="#fdfdfd" d="M 182.5,111.5 C 181.833,111.5 181.5,111.833 181.5,112.5C 180.167,112.833 180.167,113.167 181.5,113.5C 180.147,114.867 180.481,115.867 182.5,116.5C 183.748,115.96 184.915,115.293 186,114.5C 187.011,115.337 188.178,115.67 189.5,115.5C 190.575,119.465 188.908,121.798 184.5,122.5C 176.556,121.531 168.556,121.198 160.5,121.5C 159.359,119.451 159.359,117.451 160.5,115.5C 161.583,115.461 162.583,115.127 163.5,114.5C 165.156,117.018 166.489,117.018 167.5,114.5C 168.5,114.167 169.167,113.5 169.5,112.5C 169.867,110.544 170.2,108.544 170.5,106.5C 170.167,103.833 169.833,103.833 169.5,106.5C 169.167,106.5 168.833,106.5 168.5,106.5C 167.452,104.067 166.786,104.067 166.5,106.5C 165.604,105.494 164.938,105.494 164.5,106.5C 164.167,106.5 163.833,106.5 163.5,106.5C 161.282,104.792 159.116,102.792 157,100.5C 154.998,94.3151 156.831,89.8151 162.5,87C 166.653,86.0866 170.82,85.2533 175,84.5C 178.828,85.3309 182.661,86.1642 186.5,87C 192.169,89.8151 194.002,94.3151 192,100.5C 188.28,104.643 183.78,105.976 178.5,104.5C 178.5,106.5 178.5,108.5 178.5,110.5C 180.099,110.232 181.432,110.566 182.5,111.5 Z M 168.5,106.5 C 167.833,106.5 167.167,106.5 166.5,106.5C 166.786,104.067 167.452,104.067 168.5,106.5 Z"/></g>
<g><path style="opacity:1" fill="#fefffe" d="M 102.5,86.5 C 106.696,88.8438 111.03,91.0105 115.5,93C 117.558,97.2489 119.892,101.416 122.5,105.5C 119.772,108.899 117.439,112.566 115.5,116.5C 111.562,118.444 107.896,120.777 104.5,123.5C 101.104,120.777 97.4377,118.444 93.5,116.5C 91.6411,112.299 88.9744,108.632 85.5,105.5C 87.1288,102.374 89.2955,99.707 92,97.5C 91.8333,93.6667 93.6667,91.8333 97.5,92C 99.424,90.2502 101.091,88.4169 102.5,86.5 Z M 98.5,96.5 C 102.514,96.3345 106.514,96.5012 110.5,97C 111,97.5 111.5,98 112,98.5C 116.013,111.484 111.513,116.317 98.5,113C 98,112.5 97.5,112 97,111.5C 95.9548,106.215 96.4548,101.215 98.5,96.5 Z M 91.5,103.5 C 92.5735,104.251 92.7401,105.251 92,106.5C 90.2716,105.648 90.105,104.648 91.5,103.5 Z M 116.5,103.5 C 118.76,104.238 118.927,105.238 117,106.5C 116.517,105.552 116.351,104.552 116.5,103.5 Z"/></g>
<g><path style="opacity:0.764" fill="#fefffe" d="M 35.5,88.5 C 38.1667,88.5 40.8333,88.5 43.5,88.5C 45.3778,98.0165 47.3778,107.517 49.5,117C 49.2645,117.873 48.9312,118.707 48.5,119.5C 40.5277,120.498 32.5277,120.831 24.5,120.5C 22.6852,110.797 20.6852,101.13 18.5,91.5C 18.7093,90.914 19.0426,90.414 19.5,90C 25.0158,89.8267 30.3491,89.3267 35.5,88.5 Z M 24.5,93.5 C 27.0009,93.5109 27.1676,94.1776 25,95.5C 24.5357,94.9056 24.369,94.2389 24.5,93.5 Z M 36.5,94.5 C 37.3864,93.2241 38.3864,93.2241 39.5,94.5C 40.6416,97.3992 41.3083,100.399 41.5,103.5C 36.57,103.197 31.7367,103.531 27,104.5C 26.8333,104.167 26.6667,103.833 26.5,103.5C 29.4465,102.679 32.4465,102.179 35.5,102C 36.3366,100.989 36.67,99.8221 36.5,98.5C 32.6494,97.9709 29.1494,98.6375 26,100.5C 25.5172,99.552 25.3505,98.552 25.5,97.5C 29.5,97.5 33.5,97.5 37.5,97.5C 37.7373,96.209 37.404,95.209 36.5,94.5 Z M 27.5,107.5 C 26.9569,107.44 26.6236,107.107 26.5,106.5C 31.467,105.338 36.467,105.171 41.5,106C 36.6486,106.174 31.9819,106.674 27.5,107.5 Z M 27.5,107.5 C 28.404,108.209 28.7373,109.209 28.5,110.5C 30.8568,110.663 33.1902,110.497 35.5,110C 34.3044,109.346 34.3044,108.846 35.5,108.5C 37.5563,110.019 39.8896,110.853 42.5,111C 39.9485,112.516 40.2819,113.349 43.5,113.5C 43.5,114.5 43.5,115.5 43.5,116.5C 38.8215,116.666 34.1548,116.499 29.5,116C 28.287,113.313 27.6203,110.48 27.5,107.5 Z"/></g>
<g><path style="opacity:1" fill="#fefffe" d="M 103.5,100.5 C 108.324,101.752 109.324,104.252 106.5,108C 99.9514,107.862 98.9514,105.362 103.5,100.5 Z"/></g>
<g><path style="opacity:0.031" fill="#bebfbe" d="M 157.5,105.5 C 158.833,106.167 158.833,106.167 157.5,105.5 Z"/></g>
<g><path style="opacity:0.012" fill="#a9aaa9" d="M 162.5,106.5 C 161.833,105.167 161.833,105.167 162.5,106.5 Z"/></g>
<g><path style="opacity:0.012" fill="#fefffe" d="M 155.5,106.5 C 156.833,107.167 156.833,107.167 155.5,106.5 Z"/></g>
<g><path style="opacity:0.043" fill="#c4c4c4" d="M 161.5,106.5 C 161.103,107.525 160.437,107.692 159.5,107C 160.094,106.536 160.761,106.369 161.5,106.5 Z"/></g>
<g><path style="opacity:0.127" fill="#d0d0d0" d="M 162.5,106.5 C 162.833,106.5 163.167,106.5 163.5,106.5C 163.833,106.5 164.167,106.5 164.5,106.5C 165.548,108.933 166.214,108.933 166.5,106.5C 167.167,106.5 167.833,106.5 168.5,106.5C 168.833,106.5 169.167,106.5 169.5,106.5C 169.833,106.5 170.167,106.5 170.5,106.5C 170.2,108.544 169.867,110.544 169.5,112.5C 166.646,111.047 164.313,109.047 162.5,106.5 Z"/></g>
<g><path style="opacity:0.153" fill="#c4c4c4" d="M 180.5,106.5 C 184.773,109.023 184.44,109.856 179.5,109C 180.252,108.329 180.586,107.496 180.5,106.5 Z"/></g>
<g><path style="opacity:0.012" fill="#a9aaa9" d="M 192.5,108.5 C 193.833,109.167 193.833,109.167 192.5,108.5 Z"/></g>
<g><path style="opacity:0.02" fill="#cbcccb" d="M 158.5,110.5 C 157.833,109.167 157.833,109.167 158.5,110.5 Z"/></g>
<g><path style="opacity:0.114" fill="#cfcfcf" d="M 160.5,108.5 C 161.267,109.172 161.934,110.005 162.5,111C 160.939,111.188 160.272,110.355 160.5,108.5 Z"/></g>
<g><path style="opacity:0.047" fill="#d4d5d4" d="M 158.5,110.5 C 159.833,111.167 159.833,111.167 158.5,110.5 Z"/></g>
<g><path style="opacity:0.024" fill="#d4d5d4" d="M 163.5,110.5 C 164.833,111.167 164.833,111.167 163.5,110.5 Z"/></g>
<g><path style="opacity:0.731" fill="#fefffe" d="M 29.5,111.5 C 32.8984,111.18 36.2317,111.513 39.5,112.5C 37.5885,112.681 35.4218,113.014 33,113.5C 31.3189,113.392 30.1522,112.725 29.5,111.5 Z"/></g>
<g><path style="opacity:0.012" fill="#a9aaa9" d="M 154.5,111.5 C 155.833,112.167 155.833,112.167 154.5,111.5 Z"/></g>
<g><path style="opacity:0.043" fill="#d0d1d0" d="M 182.5,111.5 C 183.833,112.167 183.833,112.167 182.5,111.5 Z"/></g>
<g><path style="opacity:0.012" fill="#a9aaa9" d="M 192.5,111.5 C 193.833,112.167 193.833,112.167 192.5,111.5 Z"/></g>
<g><path style="opacity:0.098" fill="#d5d6d5" d="M 164.5,112.5 C 165.833,113.167 165.833,113.167 164.5,112.5 Z"/></g>
<g><path style="opacity:0.071" fill="#d4d5d4" d="M 181.5,112.5 C 181.833,112.5 182.167,112.5 182.5,112.5C 182.5,112.833 182.5,113.167 182.5,113.5C 182.167,113.167 181.833,112.833 181.5,112.5 Z"/></g>
<g><path style="opacity:0.067" fill="#d2d2d2" d="M 188.5,111.5 C 189.525,111.897 189.692,112.563 189,113.5C 188.536,112.906 188.369,112.239 188.5,111.5 Z"/></g>
<g><path style="opacity:0.192" fill="#cecece" d="M 167.5,114.5 C 166.475,114.103 166.308,113.437 167,112.5C 167.464,113.094 167.631,113.761 167.5,114.5 Z"/></g>
<g><path style="opacity:0.131" fill="#c9c9c9" d="M 182.5,113.5 C 183.239,113.369 183.906,113.536 184.5,114C 183.563,114.692 182.897,114.525 182.5,113.5 Z"/></g>
<g><path style="opacity:0.024" fill="#d4d5d4" d="M 160.5,115.5 C 159.833,114.167 159.833,114.167 160.5,115.5 Z"/></g>
<g><path style="opacity:0.043" fill="#d0d1d0" d="M 189.5,114.5 C 190.833,115.167 190.833,115.167 189.5,114.5 Z"/></g>
<g><path style="opacity:0.004" fill="#fefffe" d="M 191.5,117.5 C 192.833,118.167 192.833,118.167 191.5,117.5 Z"/></g>
<g><path style="opacity:0.02" fill="#cbcccb" d="M 159.5,121.5 C 158.833,120.167 158.833,120.167 159.5,121.5 Z"/></g>
<g><path style="opacity:0.008" fill="#a8a8a8" d="M 159.5,121.5 C 159.833,121.5 160.167,121.5 160.5,121.5C 160.167,124.167 159.833,124.167 159.5,121.5 Z"/></g>
<g><path style="opacity:0.006" fill="#eeeeee" d="M 165.5,122.5 C 168.001,122.511 168.168,123.178 166,124.5C 165.536,123.906 165.369,123.239 165.5,122.5 Z"/></g>
<g><path style="opacity:0.008" fill="#fefffe" d="M 176.5,122.5 C 177.833,123.167 177.833,123.167 176.5,122.5 Z"/></g>
<g><path style="opacity:0.004" fill="#000000" d="M 165.5,125.5 C 166.833,126.167 166.833,126.167 165.5,125.5 Z"/></g>
<g><path style="opacity:0.016" fill="#fefffe" d="M 94.5,613.5 C 94.8966,612.475 95.5632,612.308 96.5,613C 95.9056,613.464 95.2389,613.631 94.5,613.5 Z"/></g>
</svg>
